<?xml version="1.0" encoding="iso-8859-1"?>
<!-- Generator: Adobe Illustrator 16.0.0, SVG Export Plug-In . SVG Version: 6.00 Build 0)  -->
<!DOCTYPE svg PUBLIC "-//W3C//DTD SVG 1.1//EN" "http://www.w3.org/Graphics/SVG/1.1/DTD/svg11.dtd">
<svg xmlns="http://www.w3.org/2000/svg" xmlns:xlink="http://www.w3.org/1999/xlink" version="1.1" id="Capa_1" x="0px" y="0px" width="512px" height="512px" viewBox="0 0 611.954 611.954" style="enable-background:new 0 0 611.954 611.954;" xml:space="preserve">
<g>
	<g>
		<path d="M596.707,210.43c0,0-22.519,47.533-49.875,68.061c-13.518,10.149-28.213,18.033-41.945,24.08    c0-0.092,0.016-0.184,0.016-0.291c0-109.915-95.907-199.01-214.195-199.01c-19.656,0-38.639,2.587-56.718,7.195    c-11.267-8.465-30.097-22.595-50.396-37.812c-18.156-13.64-44.302-16.104-60.835-16.104c-9.369,0-15.661,0.796-15.661,0.796    s26.652,21.753,30.602,61.234c1.485,14.788-0.689,32.393-3.796,48.252c-17.146,17.146-31.137,37.062-40.965,59.014    c-0.398-0.016-0.75-0.123-1.148-0.123H45.925C20.559,225.723,0,246.282,0,271.648v61.233c0,25.366,20.559,45.926,45.925,45.926    h45.849c0.398,0,0.766-0.107,1.148-0.123c14.451,32.24,37.812,60.147,67.143,81.181l-21.6,21.615    c-11.956,11.956-11.956,31.337,0,43.293l21.63,21.646c5.971,5.986,13.809,8.971,21.631,8.971c7.838,0,15.661-2.984,21.631-8.971    l48.528-48.543c12.599,2.144,25.534,3.398,38.792,3.398c22.228,0,43.66-3.153,63.805-8.985l54.115,54.146    c5.971,5.985,13.809,8.971,21.631,8.971c7.838,0,15.661-2.985,21.631-8.971l21.631-21.646c11.956-11.955,11.956-31.336,0-43.292    l-35.225-35.24c31.811-28.167,54.191-65.306,62.688-107.021c15.645-4.608,34.658-12.323,52.508-25.244    c31.015-22.442,58.493-72.944,58.493-72.944L596.707,210.43z M391.359,443.026l49.416,49.446c2.924,2.924,2.924,7.669,0,10.608    l-10.594,10.608c-1.47,1.47-3.383,2.189-5.297,2.189c-1.913,0-3.827-0.734-5.296-2.189l-56.58-56.61    c-22.197,8.741-46.63,13.609-72.317,13.609c-16.9,0-33.219-2.189-48.757-6.108l-50.318,50.334c-1.5,1.501-3.445,2.251-5.404,2.251    c-1.96,0-3.919-0.75-5.404-2.251l-10.823-10.822c-2.985-2.985-2.985-7.838,0-10.823l39.894-39.909    c-46.155-20.865-81.425-58.907-95.693-105.139H45.91c-8.45,0-15.309-6.857-15.309-15.308v-61.234    c0-8.451,6.858-15.309,15.309-15.309h68.275c8.404-27.234,24.142-51.62,45.038-71.368l9.078-81.717l67.296,38.485    c17.406-5.036,35.868-7.868,55.095-7.868c101.403,0,183.609,75.394,183.609,168.393    C474.301,361.171,441.28,412.929,391.359,443.026z" fill="#8a0917"/>
		<circle cx="183.594" cy="241.046" r="30.617" fill="#8a0917"/>
	</g>
</g>
<g>
</g>
<g>
</g>
<g>
</g>
<g>
</g>
<g>
</g>
<g>
</g>
<g>
</g>
<g>
</g>
<g>
</g>
<g>
</g>
<g>
</g>
<g>
</g>
<g>
</g>
<g>
</g>
<g>
</g>
</svg>
