<?xml version="1.0" encoding="iso-8859-1"?>
<!-- Generator: Adobe Illustrator 19.0.0, SVG Export Plug-In . SVG Version: 6.00 Build 0)  -->
<svg version="1.1" id="Layer_1" xmlns="http://www.w3.org/2000/svg" xmlns:xlink="http://www.w3.org/1999/xlink" x="0px" y="0px"
	 viewBox="0 0 511.984 511.984" style="enable-background:new 0 0 511.984 511.984;" xml:space="preserve">
<rect x="84.501" y="274.992" style="fill:#ED5564;" width="255.49" height="145"/>
<rect x="255.991" y="182.492" style="fill:#E6E9ED;" width="67.5" height="80.998"/>
<polygon style="fill:#FFCE54;" points="442.489,73.998 255.995,27.999 68.001,71.498 70.501,94.497 446.489,90.997 "/>
<g>
	<circle style="fill:#434A54;" cx="362.741" cy="477.982" r="18.499"/>
	<circle style="fill:#434A54;" cx="185.501" cy="424.992" r="70.5"/>
</g>
<path d="M450.302,64.248L266.636,23.593V10.656C266.636,4.781,261.863,0,255.972,0C250.081,0,245.3,4.781,245.3,10.656v12.625
	L61.68,64.248c-4.875,1.094-8.344,5.422-8.344,10.406v21.343c0,5.891,4.773,10.656,10.664,10.656h181.299v74.685v74.623h-10.663
	c-0.023-5.875-4.789-10.625-10.672-10.625h-42.663c-5.883,0-10.647,4.75-10.663,10.625h-10.641
	c-0.016-5.875-4.789-10.625-10.664-10.625h-42.67c-5.875,0-10.648,4.75-10.664,10.625H85.336H64.001
	c-5.891,0-10.664,4.781-10.664,10.672s4.773,10.672,10.664,10.672h10.664v138.667H64.001c-5.891,0-10.664,4.781-10.664,10.672
	v31.999c0,5.906,4.773,10.688,10.664,10.688c5.891,0,10.664-4.781,10.664-10.688v-21.344h10.382
	c0.102,0.016,0.188,0.031,0.289,0.031h11.328c2.414,19.25,11.266,36.531,24.327,49.608c0.008,0,0.016,0.016,0.016,0.016
	c0.008,0,0.008,0,0.016,0c15.445,15.468,36.78,25.03,60.311,25.03c23.523,0,44.858-9.562,60.311-25.03h0.008
	c0.008,0,0.008,0,0.008-0.016c13.07-13.077,21.922-30.358,24.336-49.608h71.436c2.406,2.344,6.375,7.047,9.547,14.75
	c-9.734,5.5-16.328,15.938-16.328,27.874c0,17.655,14.375,31.999,31.999,31.999c17.655,0,31.999-14.344,31.999-31.999
	c0-15.687-11.344-28.78-26.281-31.468c-4.718-13.609-11.718-22.171-16.374-26.702v-144.48h10.656
	c5.905,0,10.687-4.781,10.687-10.672s-4.781-10.672-10.687-10.672h-21.312h-10.703v-20.78c0.016-0.172,0.016-0.344,0.016-0.531
	c0-0.172,0-0.344-0.016-0.516v-20.281c0.016-0.172,0.016-0.359,0.016-0.516c0-0.188,0-0.359-0.016-0.531v-31.468
	c0-5.906-4.766-10.687-10.672-10.687h-53.326v-63.998h181.354c5.891,0,10.656-4.766,10.656-10.656V74.654
	C458.645,69.654,455.177,65.342,450.302,64.248z M218.379,374.488l-23.272,23.281c-1.008-0.484-2.047-0.906-3.109-1.281v-32.936
	C201.7,365.177,210.676,369.004,218.379,374.488z M233.488,463.705l-23.258-23.25c0.484-1.031,0.922-2.078,1.297-3.156h32.913
	C242.807,447.017,238.98,455.986,233.488,463.705z M118.225,437.299h32.96c0.375,1.062,0.805,2.094,1.281,3.109l-23.296,23.297
	C123.679,455.986,119.858,447.017,118.225,437.299z M170.693,426.659c0-5.891,4.78-10.672,10.663-10.672s10.664,4.781,10.664,10.672
	c0,5.89-4.781,10.671-10.664,10.671S170.693,432.549,170.693,426.659z M167.537,455.517c1.016,0.484,2.055,0.906,3.125,1.297v32.952
	c-9.711-1.656-18.695-5.469-26.406-10.969L167.537,455.517z M191.997,456.83c1.078-0.375,2.125-0.812,3.148-1.312l23.257,23.28
	c-7.711,5.5-16.687,9.312-26.405,10.969V456.83z M244.432,415.956h-32.921c-0.383-1.062-0.812-2.108-1.297-3.124l23.25-23.25
	C238.965,397.285,242.792,406.269,244.432,415.956z M170.662,396.504c-1.055,0.375-2.086,0.797-3.094,1.281l-23.289-23.297
	c7.711-5.484,16.68-9.312,26.383-10.937V396.504z M129.194,389.582l23.288,23.281c-0.477,1-0.906,2.046-1.281,3.093h-32.976
	C119.866,406.269,123.694,397.285,129.194,389.582z M362.648,490.626c-5.875,0-10.656-4.797-10.656-10.672
	c0-5.874,4.781-10.655,10.656-10.655c5.89,0,10.687,4.781,10.687,10.655C373.335,485.829,368.538,490.626,362.648,490.626z
	 M330.649,415.987h-64.654c-2.375-18.999-11.023-36.062-23.797-49.062c-0.18-0.219-0.352-0.421-0.547-0.624
	c-0.195-0.188-0.406-0.375-0.617-0.547c-15.397-15.109-36.482-24.421-59.701-24.421c-23.218,0-44.295,9.312-59.701,24.405
	c-0.211,0.188-0.422,0.375-0.625,0.562c-0.195,0.219-0.375,0.421-0.555,0.624c-12.765,13.016-21.413,30.078-23.788,49.062H96
	V277.304h159.378c0.195,0,0.391,0.031,0.594,0.031h63.99c0.203,0,0.406-0.031,0.594-0.031h10.094L330.649,415.987L330.649,415.987z
	 M309.305,191.994v10.672c-5.875,0.016-10.655,4.781-10.655,10.671c0,5.875,4.78,10.64,10.655,10.656l0,0
	c-5.875,0.016-10.655,4.781-10.655,10.656c0,5.89,4.78,10.656,10.655,10.671v10.64h-42.67v-63.967L309.305,191.994L309.305,191.994z
	 M437.333,85.341H74.665v-2.125l180.572-40.28l182.096,40.296V85.341z"/>
<g>
</g>
<g>
</g>
<g>
</g>
<g>
</g>
<g>
</g>
<g>
</g>
<g>
</g>
<g>
</g>
<g>
</g>
<g>
</g>
<g>
</g>
<g>
</g>
<g>
</g>
<g>
</g>
<g>
</g>
</svg>
